<svg width="700" height="200" xmlns="http://www.w3.org/2000/svg" font-family="Arial,sans-serif">
  <defs><marker id="arr" viewBox="0 0 10 10" refX="8" refY="5" markerWidth="6" markerHeight="6" orient="auto-start-reverse"><path d="M2 1L8 5L2 9" fill="none" stroke="#0D6E6E" stroke-width="1.5" stroke-linecap="round"/></marker></defs>
  <rect width="700" height="200" fill="#FAFAFA"/><rect x="10" y="70" width="98" height="60" rx="8" fill="#D6F0EE" stroke="#0D6E6E" stroke-width="1"/><text x="59" y="86" text-anchor="middle" font-size="11" font-weight="bold" fill="#0D6E6E">Purchase</text><text x="59" y="100" text-anchor="middle" font-size="11" font-weight="bold" fill="#0D6E6E">Requisition</text><text x="59" y="114" text-anchor="middle" font-size="9" fill="#555">PR created by</text><text x="59" y="126" text-anchor="middle" font-size="9" fill="#555">dept. / MRP</text><circle cx="59" cy="54" r="12" fill="#0D6E6E"/><text x="59" y="59" text-anchor="middle" font-size="12" font-weight="bold" fill="white">1</text><line x1="110" y1="100" x2="116" y2="100" stroke="#0D6E6E" stroke-width="1.5" marker-end="url(#arr)"/><rect x="118" y="70" width="98" height="60" rx="8" fill="#D6F0EE" stroke="#0D6E6E" stroke-width="1"/><text x="167" y="86" text-anchor="middle" font-size="11" font-weight="bold" fill="#0D6E6E">RFQ / Quotation</text><text x="167" y="114" text-anchor="middle" font-size="9" fill="#555">Vendor quotes</text><text x="167" y="126" text-anchor="middle" font-size="9" fill="#555">collected</text><circle cx="167" cy="54" r="12" fill="#0D6E6E"/><text x="167" y="59" text-anchor="middle" font-size="12" font-weight="bold" fill="white">2</text><line x1="218" y1="100" x2="224" y2="100" stroke="#0D6E6E" stroke-width="1.5" marker-end="url(#arr)"/><rect x="226" y="70" width="98" height="60" rx="8" fill="#D6F0EE" stroke="#0D6E6E" stroke-width="1"/><text x="275" y="86" text-anchor="middle" font-size="11" font-weight="bold" fill="#0D6E6E">Purchase Order</text><text x="275" y="114" text-anchor="middle" font-size="9" fill="#555">PO raised</text><text x="275" y="126" text-anchor="middle" font-size="9" fill="#555">(ME21N)</text><circle cx="275" cy="54" r="12" fill="#0D6E6E"/><text x="275" y="59" text-anchor="middle" font-size="12" font-weight="bold" fill="white">3</text><line x1="326" y1="100" x2="332" y2="100" stroke="#0D6E6E" stroke-width="1.5" marker-end="url(#arr)"/><rect x="334" y="70" width="98" height="60" rx="8" fill="#D6F0EE" stroke="#0D6E6E" stroke-width="1"/><text x="383" y="86" text-anchor="middle" font-size="11" font-weight="bold" fill="#0D6E6E">Goods Receipt</text><text x="383" y="114" text-anchor="middle" font-size="9" fill="#555">MIGO — GR</text><text x="383" y="126" text-anchor="middle" font-size="9" fill="#555">posted, stock ↑</text><circle cx="383" cy="54" r="12" fill="#0D6E6E"/><text x="383" y="59" text-anchor="middle" font-size="12" font-weight="bold" fill="white">4</text><line x1="434" y1="100" x2="440" y2="100" stroke="#0D6E6E" stroke-width="1.5" marker-end="url(#arr)"/><rect x="442" y="70" width="98" height="60" rx="8" fill="#D6F0EE" stroke="#0D6E6E" stroke-width="1"/><text x="491" y="86" text-anchor="middle" font-size="11" font-weight="bold" fill="#0D6E6E">Invoice</text><text x="491" y="100" text-anchor="middle" font-size="11" font-weight="bold" fill="#0D6E6E">Verification</text><text x="491" y="114" text-anchor="middle" font-size="9" fill="#555">MIRO — vendor</text><text x="491" y="126" text-anchor="middle" font-size="9" fill="#555">invoice matched</text><circle cx="491" cy="54" r="12" fill="#0D6E6E"/><text x="491" y="59" text-anchor="middle" font-size="12" font-weight="bold" fill="white">5</text><line x1="542" y1="100" x2="548" y2="100" stroke="#0D6E6E" stroke-width="1.5" marker-end="url(#arr)"/><rect x="550" y="70" width="98" height="60" rx="8" fill="#D6F0EE" stroke="#0D6E6E" stroke-width="1"/><text x="599" y="86" text-anchor="middle" font-size="11" font-weight="bold" fill="#0D6E6E">Payment</text><text x="599" y="114" text-anchor="middle" font-size="9" fill="#555">F110 — auto</text><text x="599" y="126" text-anchor="middle" font-size="9" fill="#555">payment run</text><circle cx="599" cy="54" r="12" fill="#0D6E6E"/><text x="599" y="59" text-anchor="middle" font-size="12" font-weight="bold" fill="white">6</text></svg>